<?xml version="1.0" encoding="UTF-8" standalone="no"?>
<!-- Generator: Adobe Illustrator 13.0.0, SVG Export Plug-In . SVG Version: 6.00 Build 14948)  -->

<svg
   xmlns:i="&amp;ns_ai;"
   xmlns:dc="http://purl.org/dc/elements/1.1/"
   xmlns:cc="http://creativecommons.org/ns#"
   xmlns:rdf="http://www.w3.org/1999/02/22-rdf-syntax-ns#"
   xmlns:svg="http://www.w3.org/2000/svg"
   xmlns="http://www.w3.org/2000/svg"
   xmlns:sodipodi="http://sodipodi.sourceforge.net/DTD/sodipodi-0.dtd"
   xmlns:inkscape="http://www.inkscape.org/namespaces/inkscape"
   version="1.1"
   i:viewOrigin="0 255"
   i:rulerOrigin="0 0"
   i:pageBounds="0 300 255 0"
   x="0px"
   y="0px"
   width="1000"
   height="825.98798"
   viewBox="0 0 1000 825.98798"
   enable-background="new 0 0 300 255"
   xml:space="preserve"
   id="svg8426"
   sodipodi:docname="NASA_logo.svg"
   inkscape:version="0.92.3 (2405546, 2018-03-11)"><metadata
   id="metadata8432"><rdf:RDF><cc:Work
       rdf:about=""><dc:format>image/svg+xml</dc:format><dc:type
         rdf:resource="http://purl.org/dc/dcmitype/StillImage" /><dc:title></dc:title></cc:Work></rdf:RDF></metadata><defs
   id="defs8430">
	

		
	
			
		
				
				
				
				
				
				
				
				
				
				
				
				
				
				
				
				
				
				
				
				
				
				
				
				
				
				
				
				
				
				
				
				
				
				
				
				
				
				
				
				
				
				
				
				
				
				
				
				
				
				
				
				
				
				
				
				
			</defs><sodipodi:namedview
   pagecolor="#ffffff"
   bordercolor="#666666"
   borderopacity="1"
   objecttolerance="10"
   gridtolerance="10"
   guidetolerance="10"
   inkscape:pageopacity="0"
   inkscape:pageshadow="2"
   inkscape:window-width="1360"
   inkscape:window-height="706"
   id="namedview8428"
   showgrid="false"
   inkscape:zoom="0.23137255"
   inkscape:cx="1125.9407"
   inkscape:cy="-5.9867894"
   inkscape:window-x="-8"
   inkscape:window-y="-8"
   inkscape:window-maximized="1"
   inkscape:current-layer="svg8426" />
<path
   d="m 876.90447,412.9889 c 0,226.54864 -186.62577,412.99912 -413.39176,412.99912 -226.766,0 -413.395269,-186.45048 -413.395269,-412.99912 C 50.117441,186.45077 236.74671,2.9392578e-4 463.51271,2.9392578e-4 690.27169,2.9392578e-4 876.90447,186.45428 876.90447,412.9889"
   id="path8307"
   inkscape:connector-curvature="0"
   style="fill:#0066b2;stroke-width:3.50569677" /><path
   d="M 556.76074,630.34911 C 732.88344,702.81186 702.85013,519.60415 608.56091,378.83289 555.22174,299.17295 485.64067,232.82763 441.75285,200.80309 295.66345,94.191354 206.56266,159.3938 309.13234,368.48057 c 33.22349,67.73006 75.89833,113.43383 109.24452,156.52586 25.44435,32.88694 75.03243,49.36371 57.56705,64.97107 -19.68799,17.61262 -67.34794,-60.02804 -67.34794,-60.02804 -35.22174,-42.43997 -68.76775,-87.7546 -103.34444,-149.89308 -79.00788,-141.99474 -67.60736,-286.906216 75.37599,-223.76161 121.34619,53.58808 237.25504,203.90534 283.87029,310.6468 21.60911,49.4794 79.78615,244.13672 -106.69588,165.48291"
   id="path8309"
   inkscape:connector-curvature="0"
   style="fill:#ffffff;stroke-width:3.50569677" /><path
   d="M 7.5302366,535.42536 C 85.241017,483.67075 158.89571,450.25095 284.26643,408.85217 460.41718,350.67864 593.02016,311.55507 755.68449,229.78469 834.89571,189.96699 951.96494,112.8697 999.15863,38.296524 985.64768,65.921414 944.59246,121.12211 925.5986,144.90827 704.90447,421.26935 234.7695,405.6094 10.625767,538.30704"
   id="path8311"
   inkscape:connector-curvature="0"
   style="fill:#ec1c24;stroke-width:3.50569677" /><path
   d="m 120.2454,333.42711 c 70.773,0.5539 64.14023,-0.14023 64.96757,0.69062 1.24803,0 56.77476,95.63541 56.77476,96.45925 0,0.42068 -0.41718,-33.97371 -0.41718,-77.00263 0,-4.96757 -13.66871,-19.45662 -13.25504,-19.45662 20.305,0 46.8291,0.41367 46.8291,0.41367 -9.93865,11.59334 -11.92638,10.63629 -12.01402,17.80894 -0.28747,23.04295 -0.54339,65.61963 0,113.44435 0.0736,7.15863 5.38124,9.94216 14.08589,22.34882 h -65.06574 c -21.13935,-35.19019 -59.86327,-101.20246 -59.68098,-101.02016 0.30149,0.3085 -0.83435,41.40578 0.41017,74.53462 0.41718,10.93777 5.39176,14.48904 14.51008,24.42068 0,0 10.49956,-0.28045 -50.97984,0.41367 18.6503,-9.93865 16.17528,-22.35933 16.16476,-22.7695 -0.67309,-45.75285 -0.13672,-84.87642 -0.13672,-110.13497 0,-4.14022 -0.28045,-3.72305 -13.12533,-19.45661"
   id="path8313"
   inkscape:connector-curvature="0"
   style="fill:#ffffff;stroke-width:3.50569677" /><path
   d="m 342.48554,404.08092 c 5.95968,-20.72568 11.06398,-39.25679 13.47239,-51.33392 0.42419,-2.07537 -4.5539,-9.52147 -12.42419,-16.97809 l -0.56091,-1.14285 c 37.97371,0.11568 77.63716,0.31902 77.63716,0.31902 10.36284,25.25503 33.98423,96.05258 51.80368,139.53023 4.71516,11.49518 12.84488,13.6582 12.84488,13.6582 -32.32954,-0.41368 -92.31902,-0.14724 -91.9965,-0.41368 16.15776,-14.47852 14.08589,-14.47852 7.03944,-35.60736 h -50.55916 c -10.36634,24.02454 3.22524,35.29536 4.96757,35.1972 -11.5092,0.59597 -50.55916,0 -50.55916,0 21.13585,-14.90272 19.89483,-19.46363 19.89483,-19.46363 5.81245,-20.65557 12.54689,-43.27432 18.43997,-63.76512 l 20.72918,0.007 c -4.45574,14.2752 -8.91498,28.56091 -8.91498,28.56091 h 40.20683 l -22.38036,-57.13584 c 0,0 -4.45925,14.28571 -8.91149,28.56792 h -20.72918"
   id="path8315"
   inkscape:connector-curvature="0"
   style="fill:#ffffff;stroke-width:3.50569677" /><path
   d="m 689.77739,406.15279 c 5.96319,-20.72218 11.06398,-39.25329 13.48291,-51.33392 0.41016,-2.07187 -4.54689,-9.52848 -12.42419,-16.97809 l -0.55741,-1.15337 c 37.97722,0.11919 77.63366,0.32603 77.63366,0.32603 10.36284,25.25504 33.97721,96.04206 51.80017,139.52673 4.72568,11.50219 12.8589,13.6617 12.8589,13.6617 -32.32603,-0.40316 -92.31902,-0.13672 -92.00351,-0.41718 16.16126,-14.49255 14.08589,-14.49255 7.03944,-35.60035 H 697.0447 c -10.35583,24.02454 3.23225,35.27783 4.97108,35.18668 -11.49869,0.59246 -50.55916,0 -50.55916,0 21.13584,-14.89921 19.89483,-19.45311 19.89483,-19.45311 5.80192,-20.65557 12.53637,-43.28134 18.42594,-63.76512 l 20.73269,0.007 c -4.45224,14.26818 -8.90798,28.56091 -8.90798,28.56091 h 40.19282 l -22.36985,-57.13234 c 0,0 -4.45574,14.2752 -8.9185,28.56442 h -20.72918"
   id="path8317"
   inkscape:connector-curvature="0"
   style="fill:#ffffff;stroke-width:3.50569677" /><path
   d="m 624.52235,372.21063 c -0.83085,-29.40228 0,-38.92375 0,-38.92375 -12.83786,10.35232 -6.36635,9.03769 -38.54163,3.72305 -92.83786,-15.31989 -99.88081,71.20771 -49.31464,90.67485 42.35934,16.29798 57.33918,19.49518 50.97283,34.773 -2.06836,4.97108 -40.61349,23.18668 -80.40315,-13.65469 l 0.82384,51.33392 c 4.97107,-5.12182 18.65731,-14.49605 18.65731,-14.49605 0.41718,0 43.11306,18.81858 81.64067,-0.82384 59.26731,-30.23313 29.68975,-79.1341 -33.56705,-98.54163 -52.63453,-16.14374 -2.90622,-53.82297 49.32165,-13.6582"
   id="path8319"
   inkscape:connector-curvature="0"
   style="fill:#ffffff;stroke-width:3.50569677" /><path
   d="M 1000,39.775934 C 936.99912,226.67514 684.6135,370.98013 472.16477,508.78206 343.98598,591.91265 216.74321,687.61116 129.13935,769.03798 c -23.09903,21.47589 4.71867,-8.01753 -4.13672,1.03768 C 247.25329,629.30792 387.88081,545.47619 465.58107,492.6839 597.02016,403.40082 671.76161,380.90476 898.47853,172.04236"
   id="path8321"
   inkscape:connector-curvature="0"
   style="fill:#ec1c24;stroke-width:3.50569677" /><path
   d="m 556.76074,630.34911 c 176.1227,72.46275 146.08939,-110.74496 51.80017,-251.51622 -53.33917,-79.65994 -119.15162,-142.83961 -166.80806,-178.0298 -55.67047,-41.10078 -61.12533,-44.50482 -61.12533,-44.50482 124.32603,58.99387 237.25504,203.90535 283.87029,310.64681 21.60911,49.4794 79.78615,244.13672 -106.69588,165.48291"
   id="path8323"
   inkscape:connector-curvature="0"
   style="fill:#ffffff;stroke-width:3.50569677" /><path
   d="m 469.21297,37.521764 c 0,1.83699 -1.52498,3.35846 -3.37598,3.35846 -1.85101,0 -3.35846,-1.52147 -3.35846,-3.35846 0,-1.8475 1.51095,-3.36547 3.35846,-3.36547 1.851,0 3.37598,1.52148 3.37598,3.36547"
   id="path8325"
   inkscape:connector-curvature="0"
   style="fill:#ffffff;stroke-width:3.50569677" /><path
   d="m 492.51884,88.494594 c 0,2.27169 -1.87204,4.14724 -4.14724,4.14724 -2.26818,0 -4.14373,-1.87555 -4.14373,-4.14724 0,-2.26818 1.87204,-4.13672 4.14373,-4.13672 2.2752,0.004 4.14724,1.86854 4.14724,4.13672"
   id="path8327"
   inkscape:connector-curvature="0"
   style="fill:#ffffff;stroke-width:3.50569677" /><path
   d="m 553.13585,171.81799 c 0,2.26819 -1.88256,4.14023 -4.15425,4.14023 -2.26469,0 -4.14023,-1.87204 -4.14023,-4.14023 0,-2.27169 1.87204,-4.14022 4.14023,-4.14022 2.27169,0.003 4.15425,1.86853 4.15425,4.14022"
   id="path8329"
   inkscape:connector-curvature="0"
   style="fill:#ffffff;stroke-width:3.50569677" /><path
   d="m 455.74408,117.21677 c 0,1.851 -1.52497,3.36897 -3.37248,3.36897 -1.8475,0 -3.36547,-1.52147 -3.36547,-3.36897 0,-1.844 1.52148,-3.35846 3.36547,-3.35846 1.84751,0 3.37248,1.51446 3.37248,3.35846"
   id="path8331"
   inkscape:connector-curvature="0"
   style="fill:#ffffff;stroke-width:3.50569677" /><path
   d="m 491.99649,136.36839 c 0,1.84399 -1.51796,3.36196 -3.35845,3.36196 -1.84751,0 -3.36898,-1.51797 -3.36898,-3.36196 0,-1.844 1.52147,-3.36547 3.36898,-3.36547 1.84399,0 3.35845,1.52147 3.35845,3.36547"
   id="path8333"
   inkscape:connector-curvature="0"
   style="fill:#ffffff;stroke-width:3.50569677" /><path
   d="m 444.8589,82.804854 c 0,2.26818 -1.86854,4.13672 -4.14724,4.13672 -2.26819,0 -4.14724,-1.86854 -4.14724,-4.13672 0,-2.26819 1.87554,-4.13672 4.14724,-4.13672 2.2787,0 4.14724,1.86853 4.14724,4.13672"
   id="path8335"
   inkscape:connector-curvature="0"
   style="fill:#ffffff;stroke-width:3.50569677" /><path
   d="m 389.94917,116.18609 c 0,1.84049 -1.52147,3.36197 -3.36898,3.36197 -1.85101,0 -3.36897,-1.52148 -3.36897,-3.36197 0,-1.84399 1.52147,-3.36196 3.36897,-3.36196 1.844,0 3.36898,1.52147 3.36898,3.36196"
   id="path8337"
   inkscape:connector-curvature="0"
   style="fill:#ffffff;stroke-width:3.50569677" /><path
   d="m 399.78966,122.91352 c 0,1.84049 -1.52147,3.35846 -3.36196,3.35846 -1.85101,0 -3.37249,-1.51446 -3.37249,-3.35846 0,-1.851 1.52148,-3.36196 3.37249,-3.36196 1.84399,0 3.36196,1.51797 3.36196,3.36196"
   id="path8339"
   inkscape:connector-curvature="0"
   style="fill:#ffffff;stroke-width:3.50569677" /><path
   d="m 409.63716,129.64096 c 0,1.8475 -1.52147,3.36196 -3.36897,3.36196 -1.85101,0 -3.36547,-1.51446 -3.36547,-3.36196 0,-1.85101 1.51796,-3.36898 3.36547,-3.36898 1.84399,0 3.36897,1.52498 3.36897,3.36898"
   id="path8341"
   inkscape:connector-curvature="0"
   style="fill:#ffffff;stroke-width:3.50569677" /><path
   d="m 394.61174,142.57698 c 0,1.851 -1.52147,3.36196 -3.36196,3.36196 -1.85101,0 -3.36547,-1.51446 -3.36547,-3.36196 0,-1.84751 1.52147,-3.36197 3.36547,-3.36197 1.83699,0 3.36196,1.51797 3.36196,3.36197"
   id="path8343"
   inkscape:connector-curvature="0"
   style="fill:#ffffff;stroke-width:3.50569677" /><path
   d="m 316.38913,197.43412 c 0,1.84049 -1.52147,3.36196 -3.36547,3.36196 -1.84399,0 -3.36196,-1.52497 -3.36196,-3.36196 0,-1.844 1.52147,-3.36196 3.36196,-3.36196 1.844,0 3.36547,1.52147 3.36547,3.36196"
   id="path8345"
   inkscape:connector-curvature="0"
   style="fill:#ffffff;stroke-width:3.50569677" /><path
   d="m 330.89921,215.03272 c 0,1.84049 -1.52147,3.35846 -3.37248,3.35846 -1.85101,0 -3.36547,-1.52148 -3.36547,-3.35846 0,-1.84049 1.52147,-3.36547 3.36547,-3.36547 1.8475,0 3.37248,1.52498 3.37248,3.36547"
   id="path8347"
   inkscape:connector-curvature="0"
   style="fill:#ffffff;stroke-width:3.50569677" /><path
   d="m 319.49167,499.15892 c 0,1.84049 -1.51446,3.36898 -3.35845,3.36898 -1.844,0 -3.35846,-1.52849 -3.35846,-3.36898 0,-1.84399 1.51446,-3.36196 3.35846,-3.36196 1.84399,0 3.35845,1.51797 3.35845,3.36196"
   id="path8349"
   inkscape:connector-curvature="0"
   style="fill:#ffffff;stroke-width:3.50569677" /><path
   d="m 321.57055,577.56033 c 0,2.27519 -1.87555,4.14373 -4.14724,4.14373 -2.27519,0 -4.14373,-1.86503 -4.14373,-4.14373 0,-2.26819 1.86854,-4.14023 4.14373,-4.14023 2.27169,0 4.14724,1.86853 4.14724,4.14023"
   id="path8351"
   inkscape:connector-curvature="0"
   style="fill:#ffffff;stroke-width:3.50569677" /><path
   d="m 277.01315,617.67251 c 0,1.84049 -1.52148,3.36196 -3.36197,3.36196 -1.851,0 -3.36897,-1.52147 -3.36897,-3.36196 0,-1.84049 1.52147,-3.36197 3.36897,-3.36197 1.84049,-0.004 3.36197,1.52148 3.36197,3.36197"
   id="path8353"
   inkscape:connector-curvature="0"
   style="fill:#ffffff;stroke-width:3.50569677" /><path
   d="m 223.65294,633.98101 c 0,2.26117 -1.86854,4.13672 -4.13673,4.13672 -2.27519,0 -4.15074,-1.87555 -4.15074,-4.13672 0,-2.2752 1.87555,-4.14373 4.15074,-4.14373 2.2717,0.004 4.13673,1.86853 4.13673,4.14373"
   id="path8355"
   inkscape:connector-curvature="0"
   style="fill:#ffffff;stroke-width:3.50569677" /><path
   d="m 212.78177,597.74262 c 0,2.26819 -1.87905,4.13672 -4.14724,4.13672 -2.27169,0 -4.14373,-1.86503 -4.14373,-4.13672 0,-2.26117 1.87204,-4.14724 4.14373,-4.14724 2.26819,0.003 4.14724,1.88957 4.14724,4.14724"
   id="path8357"
   inkscape:connector-curvature="0"
   style="fill:#ffffff;stroke-width:3.50569677" /><path
   d="m 206.56617,620.77856 c 0,1.8475 -1.52147,3.36546 -3.37248,3.36546 -1.84049,0 -3.36196,-1.51796 -3.36196,-3.36546 0,-1.8405 1.52147,-3.35846 3.36196,-3.35846 1.844,0 3.37248,1.51446 3.37248,3.35846"
   id="path8359"
   inkscape:connector-curvature="0"
   style="fill:#ffffff;stroke-width:3.50569677" /><path
   d="m 166.67835,601.63044 c 0,1.844 -1.52147,3.36196 -3.36897,3.36196 -1.85452,0 -3.36547,-1.51796 -3.36547,-3.36196 0,-1.844 1.51446,-3.35846 3.36547,-3.35846 1.8475,0 3.36897,1.50745 3.36897,3.35846"
   id="path8361"
   inkscape:connector-curvature="0"
   style="fill:#ffffff;stroke-width:3.50569677" /><path
   d="m 306.02629,666.32106 c 0,1.83699 -1.52147,3.35846 -3.36897,3.35846 -1.844,0 -3.36197,-1.52147 -3.36197,-3.35846 0,-1.84399 1.52148,-3.36547 3.36197,-3.36547 1.85101,-0.003 3.36897,1.52148 3.36897,3.36547"
   id="path8363"
   inkscape:connector-curvature="0"
   style="fill:#ffffff;stroke-width:3.50569677" /><path
   d="m 347.98948,635.53053 c 0,2.27519 -1.87204,4.13321 -4.14373,4.13321 -2.2752,0 -4.14373,-1.85451 -4.14373,-4.13321 0,-2.26468 1.86853,-4.14724 4.14373,-4.14724 2.27169,0 4.14373,1.87555 4.14373,4.14724"
   id="path8365"
   inkscape:connector-curvature="0"
   style="fill:#ffffff;stroke-width:3.50569677" /><path
   d="m 352.64855,675.11335 c 0,1.85101 -1.52147,3.37598 -3.36897,3.37598 -1.844,0 -3.36196,-1.52497 -3.36196,-3.37598 0,-1.83699 1.52147,-3.36196 3.36196,-3.36196 1.8475,0 3.36897,1.52147 3.36897,3.36196"
   id="path8367"
   inkscape:connector-curvature="0"
   style="fill:#ffffff;stroke-width:3.50569677" /><path
   d="m 525.16389,637.34297 c 0,1.83348 -1.52498,3.35495 -3.36196,3.35495 -1.85452,0 -3.36898,-1.51796 -3.36898,-3.35495 0,-1.86152 1.51446,-3.36196 3.36898,-3.36196 1.83348,0 3.36196,1.50044 3.36196,3.36196"
   id="path8369"
   inkscape:connector-curvature="0"
   style="fill:#ffffff;stroke-width:3.50569677" /><path
   d="m 444.8589,665.80572 c 0,1.83348 -1.52498,3.35496 -3.36547,3.35496 -1.84751,0 -3.37248,-1.51797 -3.37248,-3.35496 0,-1.84399 1.52497,-3.37248 3.37248,-3.37248 1.84399,0 3.36547,1.52498 3.36547,3.37248"
   id="path8371"
   inkscape:connector-curvature="0"
   style="fill:#ffffff;stroke-width:3.50569677" /><path
   d="m 660.88694,706.69617 c 0,1.84049 -1.51797,3.35846 -3.36547,3.35846 -1.84049,0 -3.36547,-1.51797 -3.36547,-3.35846 0,-1.83698 1.52498,-3.36547 3.36547,-3.36547 1.8475,-0.004 3.36547,1.52498 3.36547,3.36547"
   id="path8373"
   inkscape:connector-curvature="0"
   style="fill:#ffffff;stroke-width:3.50569677" /><path
   d="m 678.50307,547.55156 c 0,2.26468 -1.87204,4.13672 -4.14374,4.13672 -2.27519,0 -4.15425,-1.86853 -4.15425,-4.13672 0,-2.27169 1.87555,-4.15425 4.15425,-4.15425 2.2717,0 4.14374,1.87905 4.14374,4.15425"
   id="path8375"
   inkscape:connector-curvature="0"
   style="fill:#ffffff;stroke-width:3.50569677" /><path
   d="m 645.33216,570.06164 c 0,1.85451 -1.51095,3.35846 -3.34794,3.35846 -1.851,0 -3.36897,-1.50395 -3.36897,-3.35846 0,-1.844 1.51446,-3.36897 3.36897,-3.36897 1.83348,-0.004 3.34794,1.52497 3.34794,3.36897"
   id="path8377"
   inkscape:connector-curvature="0"
   style="fill:#ffffff;stroke-width:3.50569677" /><path
   d="m 677.98773,576.52965 c 0,2.2752 -1.88256,4.15425 -4.15074,4.15425 -2.26819,0 -4.15776,-1.87555 -4.15776,-4.15425 0,-2.26819 1.88606,-4.13672 4.15776,-4.13672 2.26818,-0.004 4.15074,1.86152 4.15074,4.13672"
   id="path8379"
   inkscape:connector-curvature="0"
   style="fill:#ffffff;stroke-width:3.50569677" /><path
   d="m 645.33216,616.62781 c 0,1.85802 -1.51095,3.36897 -3.34794,3.36897 -1.851,0 -3.36897,-1.51095 -3.36897,-3.36897 0,-1.82997 1.51446,-3.35846 3.36897,-3.35846 1.83348,0 3.34794,1.52849 3.34794,3.35846"
   id="path8381"
   inkscape:connector-curvature="0"
   style="fill:#ffffff;stroke-width:3.50569677" /><path
   d="m 729.78089,525.03798 c 0,1.84049 -1.51446,3.36196 -3.35845,3.36196 -1.84751,0 -3.37248,-1.52147 -3.37248,-3.36196 0,-1.85452 1.52497,-3.36197 3.37248,-3.36197 1.84399,0 3.35845,1.50745 3.35845,3.36197"
   id="path8383"
   inkscape:connector-curvature="0"
   style="fill:#ffffff;stroke-width:3.50569677" /><path
   d="m 738.06836,545.47619 c 0,2.26818 -1.86503,4.14724 -4.13672,4.14724 -2.2752,0 -4.15425,-1.87555 -4.15425,-4.14724 0,-2.26468 1.87555,-4.13672 4.15425,-4.13672 2.27169,0.003 4.13672,1.86853 4.13672,4.13672"
   id="path8385"
   inkscape:connector-curvature="0"
   style="fill:#ffffff;stroke-width:3.50569677" /><path
   d="m 796.10167,569.80572 c 0,2.2752 -1.88256,4.13322 -4.15426,4.13322 -2.27169,0 -4.13672,-1.85451 -4.13672,-4.13322 0,-2.26468 1.86503,-4.14022 4.13672,-4.14022 2.2717,0 4.15426,1.86853 4.15426,4.14022"
   id="path8387"
   inkscape:connector-curvature="0"
   style="fill:#ffffff;stroke-width:3.50569677" /><path
   d="m 737.03769,613.01694 c 0,1.844 -1.52849,3.35846 -3.37248,3.35846 -1.84049,0 -3.36547,-1.51446 -3.36547,-3.35846 0,-1.8475 1.52498,-3.36196 3.36547,-3.36196 1.8475,0 3.37248,1.51095 3.37248,3.36196"
   id="path8389"
   inkscape:connector-curvature="0"
   style="fill:#ffffff;stroke-width:3.50569677" /><path
   d="m 774.33479,577.82325 c 0,1.844 -1.52497,3.36197 -3.36196,3.36197 -1.8475,0 -3.36547,-1.51797 -3.36547,-3.36197 0,-1.84399 1.51797,-3.36196 3.36547,-3.36196 1.83699,-0.004 3.36196,1.51095 3.36196,3.36196"
   id="path8391"
   inkscape:connector-curvature="0"
   style="fill:#ffffff;stroke-width:3.50569677" /><path
   d="m 767.60386,632.15805 c 0,1.85451 -1.52849,3.37248 -3.36898,3.37248 -1.84399,0 -3.37248,-1.51797 -3.37248,-3.37248 0,-1.83348 1.52849,-3.36197 3.37248,-3.36197 1.84049,0 3.36898,1.52498 3.36898,3.36197"
   id="path8393"
   inkscape:connector-curvature="0"
   style="fill:#ffffff;stroke-width:3.50569677" /><path
   d="m 783.28133,541.8548 c 0,2.83962 -2.34531,5.17441 -5.18843,5.17441 -2.85013,0 -5.17791,-2.33479 -5.17791,-5.17441 0,-2.8361 2.32778,-5.1744 5.17791,-5.1744 2.85013,0 5.18843,2.3383 5.18843,5.1744"
   id="path8395"
   inkscape:connector-curvature="0"
   style="fill:#ffffff;stroke-width:3.50569677" /><polyline
   points="228.951,158.537 228.508,162.599 224.481,163.042 228.546,163.482 228.99,167.692       229.431,163.482 233.423,162.97 229.394,162.599 228.951,158.537     "
   id="polyline8397"
   style="fill:#ffffff"
   transform="matrix(3.5056968,0,0,3.5056968,-24.539877,-29.721006)" /><path
   d="m 747.0149,631.90564 c 0,2.83611 -2.34531,5.1709 -5.18843,5.1709 -2.83611,0 -5.17792,-2.33479 -5.17792,-5.1709 0,-2.84663 2.34181,-5.18493 5.17792,-5.18493 2.84312,0 5.18843,2.3383 5.18843,5.18493"
   id="path8399"
   inkscape:connector-curvature="0"
   style="fill:#ffffff;stroke-width:3.50569677" /><polyline
   points="218.605,184.226 218.166,188.285 214.139,188.729 218.198,189.173 218.642,193.378       219.088,189.173 223.079,188.654 219.05,188.285 218.605,184.226     "
   id="polyline8401"
   style="fill:#ffffff"
   transform="matrix(3.5056968,0,0,3.5056968,-24.539877,-29.721006)" /><path
   d="m 360.55741,204.42448 c 0,2.83961 -2.34532,5.17441 -5.19194,5.17441 -2.83962,0 -5.18142,-2.3383 -5.18142,-5.17441 0,-2.83611 2.3418,-5.17441 5.18142,-5.17441 2.84662,-0.003 5.19194,2.33479 5.19194,5.17441"
   id="path8403"
   inkscape:connector-curvature="0"
   style="fill:#ffffff;stroke-width:3.50569677" /><polyline
   points="108.368,62.288 107.926,66.347 103.9,66.79 107.961,67.232 108.405,71.44 108.849,67.232       112.839,66.716 108.812,66.347 108.368,62.288     "
   id="polyline8405"
   style="fill:#ffffff"
   transform="matrix(3.5056968,0,0,3.5056968,-24.539877,-29.721006)" /><path
   d="m 553.26205,79.186974 c 0,2.8326 -2.34531,5.17441 -5.18492,5.17441 -2.8291,0 -5.18142,-2.34181 -5.18142,-5.17441 0,-2.83962 2.35232,-5.18142 5.18142,-5.18142 2.84312,-0.004 5.18492,2.3418 5.18492,5.18142"
   id="path8407"
   inkscape:connector-curvature="0"
   style="fill:#ffffff;stroke-width:3.50569677" /><polyline
   points="163.339,26.563 162.897,30.622 158.872,31.066 162.933,31.507 163.379,35.715 163.821,31.507       167.812,30.99 163.785,30.622 163.339,26.563     "
   id="polyline8409"
   style="fill:#ffffff"
   transform="matrix(3.5056968,0,0,3.5056968,-24.539877,-29.721006)" /><path
   d="m 319.10254,714.7137 c 0,2.84312 -2.33129,5.17791 -5.17441,5.17791 -2.84662,0 -5.17791,-2.33479 -5.17791,-5.17791 0,-2.84312 2.33129,-5.18142 5.17791,-5.18142 2.84312,0 5.17441,2.3383 5.17441,5.18142"
   id="path8411"
   inkscape:connector-curvature="0"
   style="fill:#ffffff;stroke-width:3.50569677" /><polyline
   points="96.548,207.848 96.104,211.907 92.078,212.35 96.141,212.791 96.585,217 97.027,212.791       101.019,212.276 96.99,211.907 96.548,207.848     "
   id="polyline8413"
   style="fill:#ffffff"
   transform="matrix(3.5056968,0,0,3.5056968,-24.539877,-29.721006)" /><path
   d="M 60.087642,502.82238 C 37.461876,513.89337 17.195443,524.83114 0,535.50949 l 10.457493,3.79317 c 15.03944,-9.25154 33.097284,-18.91674 52.115688,-27.42857"
   id="path8415"
   inkscape:connector-curvature="0"
   style="fill:#ec1c24;stroke-width:3.50569677" /><path
   d="m 179.53374,711.95822 c -20.6766,18.04733 -42.05434,37.31814 -63.49868,57.51446 l -0.95005,14.26468 c 19.63541,-20.22436 43.74409,-42.06485 71.58283,-65.23751"
   id="path8417"
   inkscape:connector-curvature="0"
   style="fill:#ec1c24;stroke-width:3.50569677" />
</svg>